<svg xmlns="http://www.w3.org/2000/svg" width="410" height="404" viewBox="0 0 410 404" fill="none">
  <path d="M399.641 59.5246L215.643 388.545C211.844 395.338 202.084 395.362 198.254 388.59L10.5817 59.5563C6.38087 52.1896 12.6802 43.2665 21.0281 44.7586L205.223 77.6824C206.398 77.8924 207.601 77.8904 208.776 77.6763L389.119 44.8058C397.439 43.2894 403.768 52.1434 399.641 59.5246Z" fill="url(#paint0_linear)"/>
  <path d="M292.965 1.5744L156.801 28.2552C155.563 28.5004 154.476 29.2143 153.802 30.2497L45.4553 200.95C44.2312 202.878 45.8265 205.393 48.0962 204.981L109.28 193.961C111.852 193.497 114.114 195.762 113.652 198.335L102.818 259.643C102.342 262.301 104.811 264.485 107.373 263.688L146.777 251.599C149.355 250.799 151.818 252.998 151.303 255.637L134.227 343.796C133.673 346.654 136.76 348.727 139.154 347.107L164.23 329.979C166.787 328.258 170.036 329.959 169.863 333.002L167.449 377.286C167.271 380.409 170.817 382.168 173.157 380.174L186.315 368.889C188.724 366.846 192.205 368.62 192.051 371.715L191.248 388.733C191.069 392.35 195.507 393.866 197.302 390.748L198.848 388.056C199.104 387.604 199.405 387.179 199.746 386.788L368.96 190.963C370.63 189.03 369.086 185.993 366.492 186.461L303.617 197.754C300.991 198.229 298.731 195.866 299.334 193.264L331.316 56.072C331.913 53.4974 329.661 51.1402 327.055 51.6587L261.027 64.6153C258.398 65.1363 256.144 62.7512 256.821 60.1336L273.318 0.815892C273.995 -1.80161 271.714 -4.19777 269.101 -3.65813L261.027 -1.99999e-05" fill="url(#paint1_linear)"/>
  <defs>
    <linearGradient id="paint0_linear" x1="6.00017" y1="32.9999" x2="235" y2="344" gradientUnits="userSpaceOnUse">
      <stop stop-color="#41D1FF"/>
      <stop offset="1" stop-color="#BD34FE"/>
    </linearGradient>
    <linearGradient id="paint1_linear" x1="194.651" y1="8.81818" x2="236.076" y2="292.989" gradientUnits="userSpaceOnUse">
      <stop stop-color="#FFEA83"/>
      <stop offset="0.0833333" stop-color="#FFDD35"/>
      <stop offset="1" stop-color="#FFA800"/>
    </linearGradient>
  </defs>
</svg>
